<svg xmlns="http://www.w3.org/2000/svg" width="512" height="512" enable-background="new 0 0 512 512" viewBox="0 0 512 512" id="menu"><path d="M486.468 77.217H153.875c-3.978 0-7.202-3.224-7.202-7.201s3.224-7.201 7.202-7.201h332.593c3.978 0 7.201 3.224 7.201 7.201S490.445 77.217 486.468 77.217zM486.468 201.522H153.875c-3.978 0-7.202-3.224-7.202-7.201s3.224-7.201 7.202-7.201h332.593c3.978 0 7.201 3.224 7.201 7.201S490.445 201.522 486.468 201.522zM486.468 325.907H153.875c-3.978 0-7.202-3.224-7.202-7.201s3.224-7.201 7.202-7.201h332.593c3.978 0 7.201 3.224 7.201 7.201S490.445 325.907 486.468 325.907zM486.468 450.202H153.875c-3.978 0-7.202-3.224-7.202-7.201s3.224-7.201 7.202-7.201h332.593c3.978 0 7.201 3.224 7.201 7.201S490.445 450.202 486.468 450.202zM56.749 231.88c-20.667 0-37.481-16.849-37.481-37.559 0-20.667 16.814-37.48 37.481-37.48 20.71 0 37.559 16.813 37.559 37.48C94.308 215.031 77.459 231.88 56.749 231.88zM56.749 171.243c-12.725 0-23.078 10.354-23.078 23.078 0 12.769 10.353 23.156 23.078 23.156 12.768 0 23.155-10.388 23.155-23.156C79.904 181.597 69.517 171.243 56.749 171.243zM56.749 107.496c-20.667 0-37.481-16.813-37.481-37.48 0-20.71 16.814-37.559 37.481-37.559 20.71 0 37.559 16.849 37.559 37.559C94.308 90.683 77.459 107.496 56.749 107.496zM56.749 46.859c-12.725 0-23.078 10.388-23.078 23.156 0 12.726 10.353 23.078 23.078 23.078 12.768 0 23.155-10.353 23.155-23.078C79.904 57.247 69.517 46.859 56.749 46.859zM56.749 356.186c-20.667 0-37.481-16.849-37.481-37.559 0-20.667 16.814-37.48 37.481-37.48 20.71 0 37.559 16.813 37.559 37.48C94.308 339.337 77.459 356.186 56.749 356.186zM56.749 295.549c-12.725 0-23.078 10.354-23.078 23.078 0 12.769 10.353 23.156 23.078 23.156 12.768 0 23.155-10.388 23.155-23.156C79.904 305.902 69.517 295.549 56.749 295.549zM56.749 480.48c-20.667 0-37.481-16.849-37.481-37.559 0-20.667 16.814-37.48 37.481-37.48 20.71 0 37.559 16.813 37.559 37.48C94.308 463.632 77.459 480.48 56.749 480.48zM56.749 419.844c-12.725 0-23.078 10.354-23.078 23.078 0 12.769 10.353 23.156 23.078 23.156 12.768 0 23.155-10.388 23.155-23.156C79.904 430.197 69.517 419.844 56.749 419.844z"></path></svg>