<svg xmlns="http://www.w3.org/2000/svg" width="24" height="25" fill="none"><mask id="a" width="24" height="25" x="0" y="0" maskUnits="userSpaceOnUse" style="mask-type:alpha"><path fill="#C4C4C4" d="M0 .768h24v24H0z"/></mask><g mask="url(#a)"><path fill="#000" d="m21.53 21.238-3.66-3.66a8.98 8.98 0 0 0 2.13-5.81 9 9 0 1 0-9 9c2.215 0 4.24-.804 5.808-2.13l3.66 3.66a.746.746 0 0 0 1.06 0 .747.747 0 0 0 .002-1.06ZM3.5 11.768c0-4.135 3.365-7.5 7.5-7.5s7.5 3.365 7.5 7.5-3.365 7.5-7.5 7.5-7.5-3.365-7.5-7.5Z"/></g></svg>