<svg xmlns="http://www.w3.org/2000/svg" width="24" height="25" fill="none"><mask id="a" width="24" height="25" x="0" y="0" maskUnits="userSpaceOnUse" style="mask-type:alpha"><path fill="#C4C4C4" d="M0 .628h24v24H0z"/></mask><g fill="#1D9BF0" mask="url(#a)"><path d="M11.75 23.128C5.822 23.128 1 18.306 1 12.378s4.822-10.75 10.75-10.75S22.5 6.45 22.5 12.378s-4.822 10.75-10.75 10.75Zm0-20c-5.1 0-9.25 4.15-9.25 9.25s4.15 9.25 9.25 9.25 9.25-4.15 9.25-9.25-4.15-9.25-9.25-9.25Z"/><path d="M11.75 17.493a5.509 5.509 0 0 1-4.656-2.544.748.748 0 0 1 .226-1.035.747.747 0 0 1 1.036.226 4.02 4.02 0 0 0 3.395 1.855 4.024 4.024 0 0 0 3.396-1.854.747.747 0 0 1 1.036-.225c.35.224.45.688.226 1.036a5.516 5.516 0 0 1-4.658 2.545v-.004ZM14.488 11.314a1.478 1.478 0 1 0 0-2.956 1.478 1.478 0 0 0 0 2.956ZM9.012 11.314a1.478 1.478 0 1 0 0-2.956 1.478 1.478 0 0 0 0 2.956Z"/></g></svg>